<svg width="67" height="52" viewBox="0 0 67 52" fill="none" xmlns="http://www.w3.org/2000/svg">
<path d="M12.1451 51.6348V48.1967C12.1651 47.9075 12.1233 47.6174 12.0224 47.3457C11.9216 47.074 11.7639 46.8269 11.5601 46.6208C11.3562 46.4148 11.1108 46.2546 10.8401 46.1508C10.5695 46.0471 10.2798 46.0022 9.9905 46.0192C9.61176 45.9944 9.2333 46.0717 8.89462 46.243C8.55595 46.4144 8.26948 46.6735 8.06513 46.9933C7.87886 46.6831 7.61233 46.4288 7.29364 46.2574C6.97496 46.0859 6.61592 46.0036 6.25437 46.0192C5.93922 46.0033 5.62537 46.07 5.34394 46.2127C5.0625 46.3554 4.82325 46.5692 4.6499 46.8329V46.1567H3.45801V51.6348H4.66136V48.6207C4.63577 48.4334 4.65187 48.2427 4.70852 48.0623C4.76518 47.8819 4.86098 47.7163 4.98909 47.5772C5.1172 47.4382 5.27444 47.3292 5.44959 47.2579C5.62473 47.1867 5.81344 47.1551 6.00224 47.1652C6.79302 47.1652 7.19413 47.681 7.19413 48.6093V51.6578H8.39749V48.6207C8.37294 48.4336 8.38978 48.2433 8.44682 48.0634C8.50386 47.8835 8.59971 47.7183 8.7276 47.5794C8.85549 47.4406 9.0123 47.3316 9.18695 47.26C9.3616 47.1884 9.54984 47.1561 9.73837 47.1652C10.5521 47.1652 10.9417 47.681 10.9417 48.6093V51.6578L12.1451 51.6348ZM29.949 46.1567H27.9892V44.4949H26.7859V46.1567H25.6971V47.2455H26.8088V49.7668C26.8088 51.0389 27.3016 51.7953 28.7112 51.7953C29.2379 51.797 29.7543 51.6501 30.2011 51.3712L29.8573 50.3513C29.5377 50.5419 29.1749 50.6484 28.8029 50.6607C28.2299 50.6607 28.0122 50.2939 28.0122 49.7438V47.2455H29.9604L29.949 46.1567ZM40.1145 46.0192C39.8239 46.0106 39.5363 46.0807 39.2822 46.2218C39.028 46.363 38.8167 46.5702 38.6704 46.8214V46.1567H37.49V51.6348H38.6819V48.5634C38.6819 47.658 39.0716 47.1538 39.8279 47.1538C40.0829 47.1503 40.336 47.197 40.5729 47.2913L40.9396 46.1453C40.6674 46.0479 40.3806 45.9975 40.0915 45.9963L40.1145 46.0192ZM24.7459 46.5922C24.0712 46.1911 23.2956 45.9922 22.5111 46.0192C21.1244 46.0192 20.219 46.6839 20.219 47.7726C20.219 48.6666 20.8837 49.2167 22.11 49.3886L22.683 49.4688C23.3363 49.5605 23.6457 49.7324 23.6457 50.0418C23.6457 50.4659 23.2102 50.7065 22.3965 50.7065C21.742 50.7255 21.1002 50.5236 20.5743 50.1335L20.0013 51.0618C20.6955 51.5466 21.5271 51.7956 22.3736 51.7724C23.9551 51.7724 24.872 51.0274 24.872 49.9845C24.872 48.9416 24.15 48.5176 22.9581 48.3457L22.385 48.2654C21.8693 48.1967 21.4567 48.0935 21.4567 47.7268C21.4567 47.3601 21.8464 47.085 22.4996 47.085C23.1034 47.092 23.6953 47.2538 24.2187 47.5549L24.7459 46.5922ZM56.6692 46.0192C56.3786 46.0106 56.091 46.0807 55.8369 46.2218C55.5828 46.363 55.3714 46.5702 55.2251 46.8214V46.1567H54.0447V51.6348H55.2366V48.5634C55.2366 47.658 55.6263 47.1538 56.3827 47.1538C56.6376 47.1503 56.8907 47.197 57.1276 47.2913L57.4943 46.1453C57.2221 46.0479 56.9353 45.9975 56.6462 45.9963L56.6692 46.0192ZM41.3121 48.8843C41.2979 49.2693 41.3642 49.653 41.5069 50.0108C41.6495 50.3687 41.8652 50.6928 42.1403 50.9625C42.4154 51.2322 42.7438 51.4415 43.1044 51.577C43.465 51.7125 43.8499 51.7712 44.2345 51.7494C44.9501 51.7858 45.6535 51.5528 46.2057 51.0962L45.6327 50.1335C45.2207 50.4477 44.7183 50.6205 44.2001 50.6263C43.7596 50.5907 43.3486 50.3905 43.0489 50.0656C42.7492 49.7407 42.5828 49.3149 42.5828 48.8729C42.5828 48.4308 42.7492 48.005 43.0489 47.6801C43.3486 47.3552 43.7596 47.155 44.2001 47.1194C44.7183 47.1252 45.2207 47.298 45.6327 47.6122L46.2057 46.6495C45.6535 46.1929 44.9501 45.9599 44.2345 45.9963C43.8499 45.9745 43.465 46.0332 43.1044 46.1687C42.7438 46.3042 42.4154 46.5135 42.1403 46.7832C41.8652 47.0529 41.6495 47.377 41.5069 47.7349C41.3642 48.0927 41.2979 48.4764 41.3121 48.8614V48.8843ZM52.4746 48.8843V46.1567H51.2827V46.8214C51.0803 46.561 50.8189 46.3524 50.52 46.2129C50.2211 46.0734 49.8933 46.007 49.5637 46.0192C48.8038 46.0192 48.075 46.321 47.5377 46.8584C47.0004 47.3957 46.6985 48.1244 46.6985 48.8843C46.6985 49.6442 47.0004 50.3729 47.5377 50.9103C48.075 51.4476 48.8038 51.7494 49.5637 51.7494C49.8933 51.7616 50.2211 51.6952 50.52 51.5557C50.8189 51.4162 51.0803 51.2076 51.2827 50.9472V51.6119H52.4746V48.8843ZM48.0394 48.8843C48.0584 48.5619 48.1713 48.252 48.3642 47.9929C48.5571 47.7338 48.8215 47.5367 49.125 47.426C49.4284 47.3153 49.7576 47.2958 50.072 47.3698C50.3865 47.4438 50.6724 47.6081 50.8946 47.8426C51.1168 48.077 51.2656 48.3714 51.3226 48.6893C51.3796 49.0072 51.3425 49.3349 51.2156 49.632C51.0888 49.9291 50.8778 50.1826 50.6087 50.3613C50.3397 50.54 50.0242 50.6361 49.7012 50.6378C49.4743 50.6406 49.2493 50.5965 49.0402 50.5082C48.8312 50.4199 48.6428 50.2893 48.4867 50.1246C48.3306 49.9599 48.2103 49.7647 48.1333 49.5512C48.0563 49.3378 48.0244 49.1107 48.0394 48.8843V48.8843ZM33.6565 46.0192C32.8966 46.0298 32.172 46.3419 31.6423 46.8867C31.1125 47.4316 30.8208 48.1645 30.8314 48.9244C30.8421 49.6843 31.1541 50.4088 31.699 50.9386C32.2438 51.4684 32.9768 51.7601 33.7367 51.7494C34.5611 51.7917 35.3719 51.5263 36.0116 51.0045L35.4386 50.122C34.9861 50.4849 34.4255 50.6866 33.8456 50.6951C33.4516 50.729 33.0599 50.6078 32.7539 50.3574C32.4478 50.107 32.2515 49.7471 32.2067 49.3542H36.2752C36.2752 49.2052 36.2752 49.0562 36.2752 48.8958C36.2752 47.1767 35.2094 46.0306 33.6736 46.0306L33.6565 46.0192ZM33.6565 47.085C33.8348 47.0812 34.0122 47.1126 34.1784 47.1773C34.3446 47.2421 34.4965 47.339 34.6252 47.4624C34.754 47.5859 34.8572 47.7335 34.9289 47.8969C35.0006 48.0602 35.0395 48.2361 35.0432 48.4144H32.1781C32.1988 48.0466 32.3628 47.7015 32.6348 47.453C32.9068 47.2045 33.2653 47.0724 33.6335 47.085H33.6565ZM63.5168 48.8958V43.9563H62.3708V46.8214C62.1684 46.561 61.9069 46.3524 61.608 46.2129C61.3091 46.0734 60.9813 46.007 60.6517 46.0192C59.8918 46.0192 59.1631 46.321 58.6257 46.8584C58.0884 47.3957 57.7866 48.1244 57.7866 48.8843C57.7866 49.6442 58.0884 50.3729 58.6257 50.9103C59.1631 51.4476 59.8918 51.7494 60.6517 51.7494C60.9813 51.7616 61.3091 51.6952 61.608 51.5557C61.9069 51.4162 62.1684 51.2076 62.3708 50.9472V51.6119H63.5168V48.8958ZM65.5052 50.8383C65.5797 50.8374 65.6537 50.851 65.723 50.8784C65.7888 50.9053 65.849 50.9442 65.9006 50.993C65.951 51.0424 65.9918 51.1007 66.0209 51.1649C66.05 51.2319 66.0649 51.304 66.0649 51.377C66.0649 51.4499 66.05 51.5221 66.0209 51.589C65.9918 51.6532 65.951 51.7115 65.9006 51.7609C65.849 51.8098 65.7888 51.8486 65.723 51.8755C65.6544 51.9058 65.5802 51.9214 65.5052 51.9213C65.3966 51.9205 65.2904 51.8888 65.1991 51.83C65.1078 51.7712 65.0351 51.6876 64.9895 51.589C64.9608 51.522 64.946 51.4499 64.946 51.377C64.946 51.3041 64.9608 51.232 64.9895 51.1649C65.0187 51.1007 65.0595 51.0424 65.1098 50.993C65.1614 50.9442 65.2217 50.9053 65.2875 50.8784C65.3621 50.8487 65.4422 50.8351 65.5224 50.8383H65.5052ZM65.5052 51.8067C65.5624 51.8071 65.619 51.7954 65.6714 51.7724C65.7207 51.7503 65.7654 51.7192 65.8032 51.6807C65.8749 51.6025 65.9146 51.5002 65.9146 51.3942C65.9146 51.2881 65.8749 51.1858 65.8032 51.1076C65.7655 51.069 65.7208 51.0379 65.6714 51.016C65.619 50.9931 65.5624 50.9814 65.5052 50.9816C65.4481 50.9819 65.3916 50.9936 65.339 51.016C65.2876 51.0371 65.2408 51.0682 65.2015 51.1076C65.1298 51.1858 65.0901 51.2881 65.0901 51.3942C65.0901 51.5002 65.1298 51.6025 65.2015 51.6807C65.2409 51.72 65.2876 51.7511 65.339 51.7724C65.3969 51.7973 65.4595 51.809 65.5224 51.8067H65.5052ZM65.5396 51.1248C65.5931 51.1222 65.6458 51.1385 65.6886 51.1707C65.7061 51.1852 65.72 51.2037 65.7289 51.2246C65.7379 51.2455 65.7418 51.2683 65.7402 51.291C65.741 51.31 65.7378 51.329 65.7309 51.3468C65.724 51.3646 65.7135 51.3807 65.7001 51.3942C65.6668 51.4243 65.6245 51.4425 65.5797 51.4457L65.7459 51.6348H65.6141L65.4594 51.4457H65.4078V51.6348H65.2989V51.1306L65.5396 51.1248ZM65.4135 51.2223V51.3598H65.5396C65.562 51.3665 65.5859 51.3665 65.6084 51.3598C65.6124 51.3518 65.6145 51.3429 65.6145 51.334C65.6145 51.325 65.6124 51.3162 65.6084 51.3082C65.6124 51.3002 65.6145 51.2914 65.6145 51.2824C65.6145 51.2735 65.6124 51.2646 65.6084 51.2566C65.5859 51.2499 65.562 51.2499 65.5396 51.2566L65.4135 51.2223ZM59.1103 48.8958C59.1293 48.5733 59.2422 48.2635 59.435 48.0043C59.6279 47.7452 59.8924 47.5482 60.1958 47.4375C60.4993 47.3268 60.8285 47.3072 61.1429 47.3812C61.4573 47.4552 61.7432 47.6196 61.9654 47.8541C62.1876 48.0885 62.3364 48.3828 62.3934 48.7008C62.4505 49.0187 62.4133 49.3464 62.2865 49.6435C62.1596 49.9405 61.9487 50.194 61.6796 50.3727C61.4105 50.5514 61.095 50.6475 60.772 50.6492C60.5451 50.6521 60.3201 50.608 60.1111 50.5197C59.9021 50.4313 59.7136 50.3007 59.5575 50.136C59.4015 49.9713 59.2811 49.7761 59.2042 49.5627C59.1272 49.3492 59.0952 49.1222 59.1103 48.8958V48.8958ZM18.8667 48.8958V46.1567H17.6748V46.8214C17.4724 46.561 17.2109 46.3524 16.912 46.2129C16.6131 46.0734 16.2853 46.007 15.9557 46.0192C15.1958 46.0192 14.4671 46.321 13.9297 46.8584C13.3924 47.3957 13.0906 48.1244 13.0906 48.8843C13.0906 49.6442 13.3924 50.3729 13.9297 50.9103C14.4671 51.4476 15.1958 51.7494 15.9557 51.7494C16.2853 51.7616 16.6131 51.6952 16.912 51.5557C17.2109 51.4162 17.4724 51.2076 17.6748 50.9472V51.6119H18.8667V48.8958ZM14.4314 48.8958C14.4505 48.5733 14.5633 48.2635 14.7562 48.0043C14.9491 47.7452 15.2136 47.5482 15.517 47.4375C15.8205 47.3268 16.1497 47.3072 16.4641 47.3812C16.7785 47.4552 17.0644 47.6196 17.2866 47.8541C17.5088 48.0885 17.6576 48.3828 17.7146 48.7008C17.7717 49.0187 17.7345 49.3464 17.6077 49.6435C17.4808 49.9405 17.2699 50.194 17.0008 50.3727C16.7317 50.5514 16.4162 50.6475 16.0932 50.6492C15.8654 50.6537 15.6391 50.6108 15.4287 50.5232C15.2183 50.4356 15.0285 50.3052 14.8711 50.1403C14.7138 49.9755 14.5925 49.7797 14.5148 49.5654C14.4372 49.3512 14.4049 49.1232 14.42 48.8958H14.4314Z" fill="white"/>
<path d="M42.4009 4.41162H24.3506V36.8505H42.4009V4.41162Z" fill="#FF5F00"/>
<path d="M25.4966 20.6349C25.4932 17.5104 26.2009 14.426 27.566 11.6155C28.9311 8.80489 30.9178 6.34176 33.3757 4.41261C30.3324 2.02093 26.6776 0.533685 22.8291 0.120856C18.9806 -0.291973 15.0935 0.386267 11.6123 2.07806C8.13096 3.76986 5.19586 6.40695 3.14241 9.68794C1.08895 12.9689 0 16.7615 0 20.6321C0 24.5027 1.08895 28.2952 3.14241 31.5762C5.19586 34.8572 8.13096 37.4943 11.6123 39.1861C15.0935 40.8779 18.9806 41.5561 22.8291 41.1433C26.6776 40.7305 30.3324 39.2432 33.3757 36.8515C30.9185 34.923 28.9323 32.4608 27.5672 29.6513C26.2022 26.8417 25.4941 23.7585 25.4966 20.6349V20.6349Z" fill="#EB001B"/>
<path d="M66.7542 20.6341C66.7541 24.505 65.6649 28.2978 63.6111 31.5789C61.5573 34.86 58.6217 37.4971 55.14 39.1886C51.6582 40.8802 47.7708 41.558 43.9221 41.1446C40.0733 40.7311 36.4185 39.2432 33.3755 36.8507C35.8316 34.9205 37.8173 32.4576 39.1827 29.6479C40.5481 26.8382 41.2576 23.7552 41.2576 20.6313C41.2576 17.5074 40.5481 14.4243 39.1827 11.6146C37.8173 8.80497 35.8316 6.34209 33.3755 4.41182C36.4185 2.01939 40.0733 0.531426 43.9221 0.118004C47.7708 -0.295418 51.6582 0.382386 55.14 2.07394C58.6217 3.76549 61.5573 6.40254 63.6111 9.68365C65.6649 12.9648 66.7541 16.7575 66.7542 20.6284V20.6341Z" fill="#F79E1B"/>
<path d="M64.7832 33.4123V32.7476H65.0525V32.6101H64.3706V32.7476H64.6628V33.4123H64.7832ZM66.1069 33.4123V32.6101H65.9006L65.6599 33.1831L65.4192 32.6101H65.2359V33.4123H65.3849V32.8107L65.6083 33.3321H65.7631L65.9865 32.8107V33.4181L66.1069 33.4123Z" fill="#F79E1B"/>
</svg>
