<svg width="77" height="52" viewBox="0 0 77 52" fill="none" xmlns="http://www.w3.org/2000/svg">
<path d="M29.2817 13.3891L19.1268 37.2201H12.5211L7.59155 18.2525C7.29577 17.0853 7.09859 16.599 6.11268 16.1126C4.6338 15.3345 2.16901 14.5563 0 14.1672L0.0985916 13.4863H10.6479C12.0282 13.4863 13.2113 14.3618 13.507 15.9181L16.169 29.633L22.6761 13.3891H29.2817ZM55.0141 29.4385C55.0141 23.2133 46.2394 22.8242 46.338 20.0034C46.338 19.128 47.2254 18.2525 49 18.058C49.8873 17.8635 52.3521 17.8635 55.1127 19.128L56.1972 14.07C54.7183 13.4863 52.7465 13 50.3803 13C44.2676 13 39.9296 16.2099 39.831 20.8788C39.831 24.2832 42.8873 26.2286 45.2535 27.2986C47.7183 28.4658 48.507 29.244 48.507 30.2167C48.507 31.773 46.5352 32.5511 44.7606 32.5511C41.6056 32.6484 39.831 31.6757 38.3521 31.0921L37.2676 36.3446C38.7465 37.0255 41.4085 37.6091 44.169 37.6091C50.7746 37.5119 55.0141 34.3992 55.0141 29.4385ZM71.2817 37.2201H77L72.0704 13.3891H66.7465C65.5634 13.3891 64.5775 14.07 64.0845 15.1399L54.7183 37.1228H61.2254L62.507 33.6211H70.493L71.2817 37.2201ZM64.3803 28.7576L67.6338 19.8088L69.507 28.7576H64.3803ZM38.1549 13.3891L33.0282 37.1228H26.8169L31.9437 13.3891H38.1549V13.3891Z" fill="white"/>
</svg>
