<svg width="77" height="25" viewBox="0 0 77 25" fill="none" xmlns="http://www.w3.org/2000/svg">
<path d="M29.1297 0.496255L19.0275 24.3272H12.4561L7.55214 5.35972C7.2579 4.19249 7.06175 3.70614 6.08095 3.21979C4.60975 2.44164 2.15776 1.66349 0 1.27441L0.0980798 0.593524H10.5926C11.9657 0.593524 13.1427 1.46895 13.4369 3.02526L16.0851 16.7402L22.5584 0.496255H29.1297ZM54.7285 16.5457C54.7285 10.3205 45.9994 9.93137 46.0975 7.11057C46.0975 6.23514 46.9802 5.35972 48.7457 5.16518C49.6284 4.97064 52.0804 4.97064 54.8266 6.23514L55.9055 1.17714C54.4343 0.593524 52.4727 0.107178 50.1188 0.107178C44.0378 0.107178 39.7223 3.31706 39.6242 7.98599C39.6242 11.3904 42.6647 13.3358 45.0186 14.4058C47.4706 15.573 48.2553 16.3511 48.2553 17.3238C48.2553 18.8801 46.2937 19.6583 44.5282 19.6583C41.3897 19.7556 39.6242 18.7829 38.153 18.1993L37.0742 23.4518C38.5454 24.1327 41.1935 24.7163 43.9397 24.7163C50.5111 24.619 54.7285 21.5064 54.7285 16.5457ZM70.9117 24.3272H76.6003L71.6963 0.496255H66.4C65.2231 0.496255 64.2423 1.17714 63.7519 2.2471L54.4343 24.23H60.9076L62.1826 20.7283H70.1271L70.9117 24.3272ZM64.0461 15.8648L67.2827 6.91603L69.1463 15.8648H64.0461ZM37.9569 0.496255L32.8567 24.23H26.6777L31.7779 0.496255H37.9569Z" fill="white"/>
</svg>
